<svg preserveAspectRatio="none" width="100%" height="100%" overflow="visible" style="display: block;" viewBox="0 0 38 32" fill="none" xmlns="http://www.w3.org/2000/svg">
<g id="Background">
<rect width="38" height="32" rx="4" fill="var(--fill-0, #C8ECC9)"/>
<path id="Icon" d="M13 24C12.1667 24 11.4583 23.7083 10.875 23.125C10.2917 22.5417 10 21.8333 10 21H8V10C8 9.45 8.19583 8.97917 8.5875 8.5875C8.97917 8.19583 9.45 8 10 8H24V12H27L30 16V21H28C28 21.8333 27.7083 22.5417 27.125 23.125C26.5417 23.7083 25.8333 24 25 24C24.1667 24 23.4583 23.7083 22.875 23.125C22.2917 22.5417 22 21.8333 22 21H16C16 21.8333 15.7083 22.5417 15.125 23.125C14.5417 23.7083 13.8333 24 13 24V24M13 22C13.2833 22 13.5208 21.9042 13.7125 21.7125C13.9042 21.5208 14 21.2833 14 21C14 20.7167 13.9042 20.4792 13.7125 20.2875C13.5208 20.0958 13.2833 20 13 20C12.7167 20 12.4792 20.0958 12.2875 20.2875C12.0958 20.4792 12 20.7167 12 21C12 21.2833 12.0958 21.5208 12.2875 21.7125C12.4792 21.9042 12.7167 22 13 22V22M10 19H10.8C11.0833 18.7 11.4083 18.4583 11.775 18.275C12.1417 18.0917 12.55 18 13 18C13.45 18 13.8583 18.0917 14.225 18.275C14.5917 18.4583 14.9167 18.7 15.2 19H22V10H10V10V10V19V19M25 22C25.2833 22 25.5208 21.9042 25.7125 21.7125C25.9042 21.5208 26 21.2833 26 21C26 20.7167 25.9042 20.4792 25.7125 20.2875C25.5208 20.0958 25.2833 20 25 20C24.7167 20 24.4792 20.0958 24.2875 20.2875C24.0958 20.4792 24 20.7167 24 21C24 21.2833 24.0958 21.5208 24.2875 21.7125C24.4792 21.9042 24.7167 22 25 22V22M24 17H28.25L26 14H24V17V17M16 14.5V14.5V14.5V14.5V14.5V14.5V14.5V14.5V14.5V14.5V14.5V14.5V14.5" fill="var(--fill-0, #03210C)"/>
</g>
</svg>
