<svg preserveAspectRatio="none" width="100%" height="100%" overflow="visible" style="display: block;" viewBox="0 0 49.5 49.5" fill="none" xmlns="http://www.w3.org/2000/svg">
<g id="Container">
<path id="Icon" d="M28.25 49.5L24.75 46L33.625 37.125L12.375 15.875L3.5 24.75L0 21.25L3.5 17.625L0 14.125L5.25 8.875L1.75 5.25L5.25 1.75L8.875 5.25L14.125 0L17.625 3.5L21.25 0L24.75 3.5L15.875 12.375L37.125 33.625L46 24.75L49.5 28.25L46 31.875L49.5 35.375L44.25 40.625L47.75 44.25L44.25 47.75L40.625 44.25L35.375 49.5L31.875 46L28.25 49.5V49.5" fill="var(--fill-0, #261A00)"/>
</g>
</svg>
