<svg preserveAspectRatio="none" width="100%" height="100%" overflow="visible" style="display: block;" viewBox="0 0 20 26.875" fill="none" xmlns="http://www.w3.org/2000/svg">
<g id="Container">
<path id="Icon" d="M12.5 26.875V19.375L9.875 16.875L8.625 22.375L0 20.625L0.5 18.125L6.5 19.375L8.5 9.25L6.25 10.125V14.375H3.75V8.5L8.6875 6.375C9.41667 6.0625 9.95312 5.85938 10.2969 5.76562C10.6406 5.67188 10.9583 5.625 11.25 5.625C11.6875 5.625 12.0938 5.73958 12.4688 5.96875C12.8438 6.19792 13.1458 6.5 13.375 6.875L14.625 8.875C15.1667 9.75 15.901 10.4688 16.8281 11.0312C17.7552 11.5938 18.8125 11.875 20 11.875V14.375C18.625 14.375 17.3385 14.0885 16.1406 13.5156C14.9427 12.9427 13.9375 12.1875 13.125 11.25L12.375 15L15 17.5V26.875H12.5V26.875M13.125 5C12.4375 5 11.849 4.75521 11.3594 4.26562C10.8698 3.77604 10.625 3.1875 10.625 2.5C10.625 1.8125 10.8698 1.22396 11.3594 0.734375C11.849 0.244792 12.4375 0 13.125 0C13.8125 0 14.401 0.244792 14.8906 0.734375C15.3802 1.22396 15.625 1.8125 15.625 2.5C15.625 3.1875 15.3802 3.77604 14.8906 4.26562C14.401 4.75521 13.8125 5 13.125 5V5" fill="var(--fill-0, #904D00)"/>
</g>
</svg>
